# xmcd CD database file
#
# Track frame offsets:
#	150
#	18294
#	37661
#	54087
#	69387
#	88437
#	103183
#	122575
#	147550
#	168475
#
# Disc length: 2497 seconds
#
# Revision: 6
# Processed by: cddbd v1.5.2PL0 Copyright (c) Steve Scherf et al.
# Submitted via: CDex 1.70beta2
#
DISCID=8109bf0a
DTITLE=Key Sounds Label - Kanon AIR Piano Arrange Album Re-feel
DYEAR=2003
DGENRE=Game
TTITLE0=KIYO - 約束 from [Kanon]
TTITLE1=riya - 少女の檻 from [Kanon]
TTITLE2=KIYO - pure snows from [Kanon]
TTITLE3=riya - 夢の跡 from [Kanon]
TTITLE4=KIYO - 残光 from [Kanon]
TTITLE5=KIYO - 夏影 from [AIR]
TTITLE6=KIYO - 伝承 from [AIR]
TTITLE7=KIYO - 青空 from [AIR]
TTITLE8=KIYO - 夢語り from [AIR]
TTITLE9=KIYO - 鳥の詩 from [AIR]
EXTD=YEAR: 2003
EXTT0=
EXTT1=
EXTT2=
EXTT3=
EXTT4=
EXTT5=
EXTT6=
EXTT7=
EXTT8=
EXTT9=
PLAYORDER=
